<svg width="332.463" height="479.954" viewBox="0 0 87.964 126.988" xmlns="http://www.w3.org/2000/svg"><g class="container"><g style="stroke:#fff;stroke-width:8;stroke-miterlimit:4;stroke-dasharray:none;stroke-opacity:1" class="outline-group"><path d="M20.55 54.151C.587 42.047 6.81 30.468 6.81 30.468M71.258 54.151C91.223 42.047 85 30.468 85 30.468M51.396 98.34c4.052 16.704-.76 24.67-.76 24.67h7.597M36.942 98.34c-4.05 16.704.76 24.67.76 24.67h-7.596" style="fill:none;stroke:#fff;stroke-width:8;stroke-linecap:round;stroke-miterlimit:4;stroke-dasharray:none;stroke-opacity:1" transform="translate(-1.922 -.023)"/><path style="stroke:#fff;stroke-width:7.99999;stroke-miterlimit:4;stroke-dasharray:none;stroke-opacity:1" class="outer" d="M44.629 4.023a27.417 37.564 0 0 0-.755.011 27.417 37.564 0 0 0-27.417 37.564 27.417 37.564 0 0 0 0 6.261 34.271 34.781 0 0 0-6.168 20.87 34.271 34.781 0 0 0 33.585 34.085 34.271 34.781 0 0 0 34.272-34.086 34.271 34.781 0 0 0-6.854-20.869 27.417 37.564 0 0 0 .685-6.26A27.417 37.564 0 0 0 44.629 4.022z" transform="translate(-1.922 -.023)"/></g><g class="arms-group"><path d="M20.55 54.151C.587 42.047 6.81 30.468 6.81 30.468" class="arm-left" style="fill:none;stroke:#000;stroke-width:3.79103;stroke-linecap:round" transform="translate(-1.922 -.023)"/><path d="M71.258 54.151C91.223 42.047 85 30.468 85 30.468" class="arm-right" style="fill:none;stroke:#000;stroke-width:3.79103;stroke-linecap:round" transform="translate(-1.922 -.023)"/></g><g class="legs-group"><path d="M51.396 98.34c4.052 16.704-.76 24.67-.76 24.67h7.597" class="leg-right" style="fill:none;stroke:#000;stroke-width:3.79103;stroke-linecap:round" transform="translate(-1.922 -.023)"/><path d="M36.942 98.34c-4.05 16.704.76 24.67.76 24.67h-7.596" class="leg-left" style="fill:none;stroke:#000;stroke-width:3.79103;stroke-linecap:round" transform="translate(-1.922 -.023)"/></g><g class="body-group"><path class="body" fill="#2a670c" d="M43.875 4.034a27.417 37.564 0 0 0-27.418 37.564 27.417 37.564 0 0 0 0 6.261 34.271 34.781 0 0 0-6.168 20.869 34.271 34.781 0 0 0 33.586 34.086 34.271 34.781 0 0 0 34.27-34.086 34.271 34.781 0 0 0-6.853-20.869 27.417 37.564 0 0 0 .685-6.26A27.417 37.564 0 0 0 43.875 4.033z" style="stroke-width:1.36134" transform="translate(-1.922 -.023)"/><path class="body-inner" fill="#c1e20c" d="M43.875 8.904a24.675 33.39 0 0 0-24.676 33.39 24.675 33.39 0 0 0 .686 5.565 30.159 30.608 0 0 0-6.17 18.086 30.159 30.608 0 0 0 30.16 30.608 30.159 30.608 0 0 0 30.844-30.608 30.159 30.608 0 0 0-6.17-18.086 24.675 33.39 0 0 0 0-5.565 24.675 33.39 0 0 0-24.674-33.39z" style="stroke-width:1.36134" transform="translate(-1.922 -.023)"/></g><g class="seed-group" transform="translate(-1.922 -.023)"><ellipse cx="44.56" cy="65.25" fill="#452c0c" class="seed" style="stroke-width:1.36134" rx="13.709" ry="13.913"/><path fill="#FFF2" d="M43.875 74.989a10.281 10.434 0 0 1-8.911-4.87 10.281 10.434 0 0 1 0-10.434 10.281 10.434 0 0 1 8.91-4.87" class="seed-inner" style="stroke-width:.947758"/></g><g class="face-group" transform="translate(-1.922 -.023)"><ellipse cx="39.077" cy="29.773" class="eye-left" style="stroke-width:.947758" rx="4.113" ry="4.174"/><ellipse cx="37.706" cy="29.077" fill="#fff" class="pupil-left" style="stroke-width:1.36134" rx="2.056" ry="2.087"/><ellipse cx="49.358" cy="29.773" class="eye-right" style="stroke-width:.947758" rx="4.113" ry="4.174"/><ellipse cx="48.673" cy="29.077" fill="#fff" class="pupil-right" style="stroke-width:1.36134" rx="2.056" ry="2.087"/><path d="M49.358 37.425a5.483 5.565 0 0 1-2.742 4.869 5.483 5.565 0 0 1-5.483 0 5.483 5.565 0 0 1-2.742-4.87" class="mouth" style="stroke-width:.947758"/></g></g></svg>