<svg width="591.796" height="704.655" viewBox="0 0 156.579 186.44" xmlns="http://www.w3.org/2000/svg"><g class="body-group"><circle style="fill:#fff;fill-opacity:1;stroke:#fff;stroke-width:6.74721;stroke-miterlimit:4;stroke-dasharray:none;stroke-opacity:1;paint-order:stroke fill markers;stop-color:#000" cx="78.29" cy="108.15" r="74.916" class="body"/><path style="fill:#000;fill-opacity:1;stroke:#fff;stroke-width:3.37361;stroke-miterlimit:4;stroke-dasharray:none;stroke-opacity:1;paint-order:stroke fill markers;stop-color:#000" d="M44.919 41.111a74.916 74.916 0 0 0-41.545 67.04 74.916 74.916 0 0 0 .704 9.988 60.527 44.294 0 0 0 .45.033 60.527 44.294 0 0 0 60.527-44.294A60.527 44.294 0 0 0 44.919 41.11zm84.653 12.434a34.184 28.22 0 0 0-2.492 9.95 34.184 28.22 0 0 0 23.958 26.786 74.916 74.916 0 0 0-21.466-36.736zm-5.204 60.339a31.697 31.994 0 0 0-20.478 7.602 19.64 19.825 0 0 0-10.17-2.867 19.64 19.825 0 0 0-19.64 19.825 19.64 19.825 0 0 0 19.64 19.825 19.64 19.825 0 0 0 1.424-.053 31.697 31.994 0 0 0 16.721 16.866 74.916 74.916 0 0 0 38.588-46.997 31.697 31.994 0 0 0-26.085-14.201zM32.333 131.88a43.536 60.093 0 0 0-21.739 8.321 74.916 74.916 0 0 0 64.766 42.756 43.536 60.093 0 0 0-43.027-51.077z" class="body-stain"/></g><g class="head"><g class="ears"><path style="fill:#fbaba9;fill-opacity:1;stroke:#000;stroke-width:3.75823;stroke-linecap:round;stroke-linejoin:round;stroke-miterlimit:4;stroke-dasharray:none;stroke-opacity:1" d="M94.003 15.884s12.469-4.812 18.996-5.067c12.121-.474 20.598 5.55 20.598 5.55s-.458 10.617-12.817 17.614c-9.109 5.158-26.777-18.097-26.777-18.097" class="ear-right"/><path style="fill:#fbaba9;fill-opacity:1;stroke:#fff;stroke-width:3.75823;stroke-linecap:round;stroke-linejoin:round;stroke-miterlimit:4;stroke-dasharray:none;stroke-opacity:1" d="m67.122 25.366-18.897 5.462-22.987-6.084s.68-14.551 14.772-16.913C50.222 6.12 67.122 25.366 67.122 25.366" class="ear-left"/></g><g class="horns"><rect style="fill:gold;fill-opacity:1;stroke:none;stroke-width:3.02673;stroke-linecap:round;stroke-linejoin:round;stroke-miterlimit:4;stroke-dasharray:none;stroke-opacity:1;paint-order:stroke fill markers;stop-color:#000" width="19.1" height="18.483" x="51.233" y="-19.391" ry="4.201" rx="4.476" transform="matrix(.94173 .33636 -.30592 .95206 0 0)" class="horn-left"/><rect style="fill:gold;fill-opacity:1;stroke:none;stroke-width:3.02673;stroke-linecap:round;stroke-linejoin:round;stroke-miterlimit:4;stroke-dasharray:none;stroke-opacity:1;paint-order:stroke fill markers;stop-color:#000" width="19.1" height="18.483" x="-102.664" y="34.981" ry="4.201" rx="4.476" transform="matrix(-.94173 .33636 .30592 .95206 0 0)" class="horn-right"/></g><g class="face"><path style="fill:#fffefe;fill-opacity:1;stroke:none;stroke-width:3.92768;stroke-miterlimit:4;stroke-dasharray:none;stroke-opacity:1;paint-order:stroke fill markers;stop-color:#000" d="M69.208 4.065c-17.39 0-31.39 14.76-31.39 33.094v51.776h83.03V37.159c0-18.334-14-33.094-31.39-33.094z" class="head"/><path d="M52.011 96.907c-4.652-.176-6.136-.365-7.716-.984-5.669-2.219-9.751-5.96-12.08-11.07-1.774-3.893-2.396-6.612-2.396-10.473 0-10.504 6.64-19.645 15.988-22.012 3.194-.81 62.07-.81 65.264 0 9.426 2.387 16 11.375 15.983 21.854-.016 10.366-5.483 18.42-14.903 21.958-1.319.495-5.094.598-27.952.76-14.535.102-29.02.087-32.188-.033z" style="fill:#f9aaa8;stroke-width:.0929095" class="snout"/><path d="M59.908 43.472c-5.776-1.163-8.595-8.347-5.287-13.474 3.281-5.084 10.414-5.084 13.694 0 4.083 6.328-1.273 14.911-8.407 13.474zm33.909 0c-5.776-1.163-8.595-8.347-5.287-13.474 3.281-5.084 10.414-5.084 13.694 0 4.083 6.328-1.273 14.911-8.407 13.474z" style="fill:#101010;stroke-width:.0243737" class="eyes"/></g></g></svg>